<?xml version="1.0" standalone="no"?>
<!DOCTYPE svg PUBLIC "-//W3C//DTD SVG 20010904//EN"
 "http://www.w3.org/TR/2001/REC-SVG-20010904/DTD/svg10.dtd">
<svg version="1.0" xmlns="http://www.w3.org/2000/svg"
 width="512.000000pt" height="512.000000pt" viewBox="0 0 512.000000 512.000000"
 preserveAspectRatio="xMidYMid meet">

<g transform="translate(0.000000,512.000000) scale(0.100000,-0.100000)"
fill="#000000" stroke="none">
<path d="M2295 4850 c-876 -115 -1577 -661 -1892 -1474 -164 -423 -192 -926
-78 -1381 140 -554 481 -1033 965 -1357 645 -430 1494 -499 2212 -178 632 282
1114 856 1284 1526 55 218 68 332 68 574 0 224 -12 346 -55 529 -57 242 -188
542 -326 747 -356 531 -897 883 -1523 994 -99 18 -173 23 -355 25 -126 2 -261
0 -300 -5z m455 -771 c93 -14 233 -63 320 -112 95 -53 250 -205 303 -297 148
-257 140 -638 -21 -890 -105 -165 -284 -291 -502 -353 l-85 -25 -7 -163 c-6
-159 -7 -165 -40 -228 -29 -57 -40 -69 -88 -94 -50 -26 -63 -28 -137 -25 -72
3 -86 7 -125 33 -28 21 -53 50 -73 90 l-30 59 -3 270 c-4 306 1 339 54 386 46
40 68 50 209 100 224 79 308 138 361 253 27 57 29 71 29 177 0 105 -2 119 -27
165 -69 131 -197 191 -385 183 -97 -4 -109 -8 -181 -44 -74 -38 -81 -44 -172
-166 -160 -214 -204 -247 -317 -235 -76 8 -129 45 -166 117 -27 51 -28 62 -24
140 12 224 191 448 458 574 199 94 407 122 649 85z m-112 -2498 c63 -32 99
-68 129 -129 36 -73 39 -182 6 -252 -47 -104 -141 -164 -258 -164 -115 0 -212
59 -262 162 -37 75 -39 173 -4 244 29 61 110 134 170 153 61 20 166 13 219
-14z"/>
</g>
</svg>
