<?xml version="1.0" encoding="utf-8"?>
<!-- Generator: Adobe Illustrator 26.0.1, SVG Export Plug-In . SVG Version: 6.00 Build 0)  -->
<svg version="1.1" id="Layer_1" xmlns="http://www.w3.org/2000/svg" xmlns:xlink="http://www.w3.org/1999/xlink" x="0px" y="0px"
	 viewBox="0 0 512 512" style="enable-background:new 0 0 512 512;" xml:space="preserve">
<style type="text/css">
	.st0{fill:#010101;}
	.st1{fill:#FDFDFD;}
</style>
<path class="st0" d="M232.1,0.2c15.9,0,31.8,0,47.8,0c21.1,8.6,25.8,15.6,25.9,38.4c0,6.8,0.3,13.6-0.1,20.4
	c-0.3,5.4,1.4,7.9,6.9,9.6c12.3,3.7,24.1,8.8,34.9,15.8c4.9,3.1,7.9,2.2,11.5-1.8c6.3-7,13-13.8,19.9-20.2
	c13.8-12.8,31.1-12.9,44.7-0.2c9.4,8.8,18.5,18,27.1,27.5c11.4,12.6,11.1,29.3-0.1,42c-4,4.5-8.5,8.7-12.7,13
	c-14.9,15-12.2,14.3-7.3,34.4c6,24.8,19.4,30.4,42.2,27.3c19.6-2.7,33.4,6.2,39.2,25.8c0,15.9,0,31.8,0,47.8
	c-6,20.1-20.2,27.4-40.3,26.1c-7.5-0.5-15.2,0.3-22.7-0.2c-6.2-0.5-9.6,1.3-11.1,7.7c-2.7,11-7.1,21.5-12.6,31.3
	c-2.8,5-2.2,7.9,1.8,11.6c7.7,7.2,15.2,14.8,22.4,22.5c12.8,13.7,13,31.1,0.3,44.6c-8.3,8.8-16.8,17.4-25.6,25.8
	c-13.5,12.8-31.1,12.9-44.7,0.4c-3.9-3.6-7.5-7.5-11.3-11.2c-14.6-14.7-14.6-14.7-32.6-6c-3.1,1.5-6.1,3-9.2,4.3
	c-20.5,8.7-21.4,8.8-20.2,31.7c1.1,20.1-4.9,34.9-23.8,43.3c-17.4,0-34.9,0-52.3,0c-17-8-24.7-20.6-23.7-40
	c1.2-22.8,0.2-22.7-22-30.7c-9.9-3.6-19.8-12.3-28.8-11.3c-9.9,1.1-15.7,14.2-24,21.2c-12.9,10.7-29.7,10.6-42.2-0.7
	c-5.9-5.3-11-11.5-17-16.7c-27.3-23.8-24.7-43.8,0.5-64.8c7.5-6.2,9.4-11.3,3.4-20.3c-5.6-8.3-10-18.1-12.2-27.8
	c-3-13.1-9.9-16.2-22.2-14.9c-20.2,2.2-35.3-4.9-41.4-25.9c0-16.7,0-33.3,0-50c8-19.9,23.7-26,43.5-23.7c10.5,1.2,16.9-1.4,18.6-13
	c0.8-5.8,3-12.1,6.5-16.7c12.9-17.5,11-30.6-6.7-44.6c-13.9-11-12.3-30,0.2-43.4c7-7.5,14.3-14.6,21.6-21.8
	c18.7-18.6,35.1-18.6,53.6,0.1c15.5,15.5,15.5,15.5,34.9,7.1c4.1-1.8,8.3-3.5,12.6-5c21.2-7.4,21.2-7.4,21.2-30.1
	C206.3,15.9,211.2,8.6,232.1,0.2z"/>
<path class="st0" d="M249.4,357.7c56.5,0,102.7-45.9,102.8-102.1c0.1-56.6-46.6-103.1-103.3-103c-56.1,0.1-102.3,46.7-102.1,102.9
	C147,312.1,192.8,357.8,249.4,357.7z"/>
<path class="st1" d="M249.4,357.7c-56.6,0-102.4-45.6-102.6-102.2c-0.2-56.2,46-102.7,102.1-102.9c56.7-0.1,103.4,46.4,103.3,103
	C352.1,311.8,305.9,357.7,249.4,357.7z"/>
</svg>
