<?xml version="1.0" standalone="no"?>
<!DOCTYPE svg PUBLIC "-//W3C//DTD SVG 20010904//EN"
 "http://www.w3.org/TR/2001/REC-SVG-20010904/DTD/svg10.dtd">
<svg version="1.0" xmlns="http://www.w3.org/2000/svg"
 width="225.000000pt" height="225.000000pt" viewBox="0 0 225.000000 225.000000"
 preserveAspectRatio="xMidYMid meet">

<g transform="translate(0.000000,225.000000) scale(0.100000,-0.100000)"
fill="#000000" stroke="none">
<path d="M1571 2067 c-13 -6 -34 -25 -45 -40 -21 -28 -21 -33 -24 -903 l-2
-874 -45 0 -45 0 0 584 c0 583 0 583 -22 611 -38 48 -71 55 -263 55 -192 0
-225 -7 -263 -55 -22 -28 -22 -28 -22 -611 l0 -584 -44 0 -45 0 -3 293 c-3
315 -4 318 -59 351 -39 23 -415 24 -459 1 -57 -30 -60 -46 -60 -360 l0 -285
-69 0 c-50 0 -74 -4 -85 -16 -19 -18 -19 -20 -6 -45 10 -19 33 -19 1115 -19
1082 0 1105 0 1115 19 13 25 13 27 -6 45 -11 12 -35 16 -85 16 l-69 0 0 866
c0 950 2 911 -59 947 -25 14 -58 17 -228 17 -137 0 -205 -4 -222 -13z m417
-79 c9 -9 12 -217 12 -875 l0 -863 -210 0 -210 0 0 863 c0 658 3 866 12 875 8
8 67 12 198 12 131 0 190 -4 198 -12z m-664 -590 c14 -20 16 -92 16 -585 l0
-563 -215 0 -215 0 0 563 c0 493 2 565 16 585 15 21 20 22 199 22 179 0 184
-1 199 -22z m-676 -574 c22 -15 22 -17 22 -295 l0 -279 -210 0 -210 0 0 285
c0 260 1 285 18 294 9 6 90 11 187 11 139 0 175 -3 193 -16z"/>
</g>
</svg>
